<svg id="Layer_1" data-name="Layer 1" xmlns="http://www.w3.org/2000/svg" viewBox="0 0 221.1 76.54"><defs><style>.cls-1{fill:#84754e;}</style></defs><title>Logo</title><path class="cls-1" d="M191.38,22c-16.12,0-28.15,10.65-28.15,26.57s12,26.58,28.15,26.58,28.15-10.66,28.15-26.58S207.51,22,191.38,22Zm0,44.64c-11.32,0-18.93-7.67-18.93-18.07s7.61-18.07,18.93-18.07,18.94,7.67,18.94,18.07S202.71,66.61,191.38,66.61ZM158.75,56.7c-5.11,6.13-13,9.91-22.68,9.91-17.38,0-29-12.24-29-28.34S118.69,9.92,136.07,9.92c9.67,0,17.57,3.79,22.68,9.92V7.59a42.23,42.23,0,0,0-22.68-6.17c-22.32,0-39,14.77-39,36.85s16.65,36.85,39,36.85A42.23,42.23,0,0,0,158.75,69Zm-95.5,3.72A38,38,0,0,0,71.12,45a54.72,54.72,0,0,0,1.07-7l-8.8,0a32.46,32.46,0,0,1-5.88,16L19.45,11.18H60.39V2.83H8.47v8.35h.09l18,21.35C18.22,34.66,9,37.22,4.23,44.45a15.88,15.88,0,0,0-2.66,9.49A17.87,17.87,0,0,0,5.4,65.21c7.44,10,21,9.91,24.14,9.91,8.61,0,19.28-2.05,26.49-7.45l5.08,6H74.94Zm-16.48,2.7A40.33,40.33,0,0,1,31,66.67c-9.25,0-14.57-3.86-16.7-7a12.26,12.26,0,0,1-2-6.57c0-9.33,11.73-12,19.9-13.79L50.44,61A24.69,24.69,0,0,1,46.77,63.12Z"/></svg>