<?xml version="1.0" encoding="utf-8"?>
<!-- Generator: Adobe Illustrator 23.0.1, SVG Export Plug-In . SVG Version: 6.00 Build 0)  -->
<svg version="1.1" id="Layer_1" xmlns="http://www.w3.org/2000/svg" xmlns:xlink="http://www.w3.org/1999/xlink" x="0px" y="0px"
	 viewBox="0 0 221.1 76.5" style="enable-background:new 0 0 221.1 76.5;" xml:space="preserve">
<style type="text/css">
	.st0{fill:#033A28;}
</style>
<title>Logo</title>
<path class="st0" d="M191.4,22c-16.1,0-28.1,10.7-28.1,26.6s12,26.6,28.1,26.6s28.1-10.7,28.1-26.6S207.5,22,191.4,22z M191.4,66.6
	c-11.3,0-18.9-7.7-18.9-18.1s7.6-18.1,18.9-18.1s18.9,7.7,18.9,18.1S202.7,66.6,191.4,66.6L191.4,66.6z M158.8,56.7
	c-5.1,6.1-13,9.9-22.7,9.9c-17.4,0-29-12.2-29-28.3s11.6-28.4,29-28.4c9.7,0,17.6,3.8,22.7,9.9V7.6c-6.8-4.2-14.7-6.3-22.7-6.2
	c-22.3,0-39,14.8-39,36.8s16.7,36.8,39,36.8c8,0.1,15.9-2,22.7-6.1V56.7z M63.2,60.4C67,56,69.7,50.7,71.1,45c0.5-2.3,0.9-4.6,1.1-7
	h-8.8c-0.5,5.8-2.5,11.3-5.9,16L19.5,11.2h40.9V2.8H8.5v8.4h0.1l18,21.3C18.2,34.7,9,37.2,4.2,44.5c-1.9,2.8-2.8,6.1-2.7,9.5
	c0,4.1,1.3,8.1,3.8,11.3c7.4,10,21,9.9,24.1,9.9c8.6,0,19.3-2.1,26.5-7.4l5.1,6h13.8L63.2,60.4z M46.8,63.1
	c-5,2.2-10.3,3.4-15.8,3.5c-9.2,0-14.6-3.9-16.7-7c-1.3-2-2-4.2-2-6.6c0-9.3,11.7-12,19.9-13.8L50.4,61
	C49.3,61.8,48.1,62.5,46.8,63.1z"/>
</svg>
