<?xml version="1.0" encoding="utf-8"?>
<!-- Generator: Adobe Illustrator 23.0.1, SVG Export Plug-In . SVG Version: 6.00 Build 0)  -->
<svg version="1.1" id="Layer_1" xmlns="http://www.w3.org/2000/svg" xmlns:xlink="http://www.w3.org/1999/xlink" x="0px" y="0px"
	 viewBox="0 0 235.3 76.5" style="enable-background:new 0 0 235.3 76.5;" xml:space="preserve">
<style type="text/css">
	.st0{fill:#033A28;}
</style>
<title>Logo</title>
<path class="st0" d="M77.8,22.1v11.5c-1.1-0.7-2.3-1.2-3.7-1.4c-3.8-0.6-7.5,0.9-9.9,3.9c-2.1,2.5-3.2,5.7-3.2,8.9v28.6h-9.9V23.4
	h9.9v13.7c0.5-2.2,1.3-4.3,2.3-6.2c1.5-2.8,3.5-5.7,6.4-7.3C72.3,22.3,75.1,21.7,77.8,22.1z M199.1,56.2l5.3-5.9l17.3,23.4h11.9
	L210,44.2l18.9-20.8h-12.6l-17.1,20.5V2.8h-9.9v70.9h9.9V56.2z M179.3,45c0-12.6-3.2-17.7-8.1-20.8c-4.2-2.8-9.7-3.1-14.2-0.7
	c-2.9,1.6-4.9,4.5-6.4,7.3c-1,2-1.8,4.1-2.3,6.2V23.4h-9.9v50.3h9.9V45c0-3.3,1.1-6.4,3.2-8.9c2.3-3,6.1-4.5,9.9-3.9
	c4.1,0.7,7.9,2.9,7.9,12.8v28.6h9.9L179.3,45L179.3,45z M84.9,23.4v8.5h34v8.4l0,0L102,42.9c-8.6,1.4-23,3.8-24.3,16.1
	c0,0.2,0,0.4,0,0.6c-0.1,4,1.5,7.9,4.4,10.7c3,2.6,8,5,16.2,4.8c17.8-0.5,19.9-12.7,20.6-15.3v13.9h9.9V23.4H84.9z M118.9,52.6
	c-0.1,10.2-12,13.1-12,13.1c-1.8,0.6-18,3.5-19.1-4.2s12.7-9.6,12.7-9.6l18.5-2.9L118.9,52.6z M1.6,2.8v70.9h9.9V42.5h33.3V34H11.5
	V11.3h33.3V2.8H1.6z"/>
</svg>
