<svg id="Layer_1" data-name="Layer 1" xmlns="http://www.w3.org/2000/svg" viewBox="0 0 235.28 76.54"><defs><style>.cls-1{fill:#84754e;}</style></defs><title>Logo</title><path class="cls-1" d="M77.85,22.07V33.61a8.4,8.4,0,0,0-3.65-1.37,10.46,10.46,0,0,0-9.89,3.88,13.68,13.68,0,0,0-3.18,8.93V73.7H51.21V23.39h9.92V37.12a25.88,25.88,0,0,1,2.3-6.23c1.47-2.84,3.48-5.74,6.36-7.3A13.42,13.42,0,0,1,77.85,22.07Zm121.3,34.1,5.32-5.86L221.74,73.7h11.94L210,44.18l18.85-20.79H216.21L199.15,43.92V2.83h-9.92V73.7h9.92ZM179.3,45.05c0-12.61-3.24-17.7-8.1-20.77A13.91,13.91,0,0,0,157,23.59c-2.88,1.56-4.89,4.46-6.37,7.3a26.31,26.31,0,0,0-2.3,6.23V23.39h-9.92V73.7h9.92V45.05a13.64,13.64,0,0,1,3.19-8.93,10.46,10.46,0,0,1,9.89-3.88c4.14.67,7.95,2.9,7.95,12.81V73.7h9.92V45.05ZM84.91,23.39v8.5h34v8.36h0L102,42.9C93.4,44.26,79,46.71,77.74,59c0,.2,0,.41,0,.62a14.61,14.61,0,0,0,4.45,10.75c3,2.56,8,5,16.22,4.77,17.75-.49,19.88-12.74,20.57-15.34V73.7h9.92V23.39Zm34,29.19c-.12,10.16-12,13.1-12,13.1-1.79.61-18,3.54-19.12-4.25s12.68-9.63,12.68-9.63l18.47-2.91ZM1.6,2.83V73.7h9.92V42.52H44.83V34H11.52V11.34H44.83V2.83Z"/></svg>