
                <svg width="431px" height="636px" viewBox="0 0 431 636" version="1.1" xmlns="http://www.w3.org/2000/svg" xmlns:xlink="http://www.w3.org/1999/xlink">
                    <!-- Generator: Sketch 64 (93537) - https://sketch.com -->
                    <title>iPhone X - Outline Copy</title>
                    <desc>Created with Sketch.</desc>
                    <defs>
                        <rect id="path-1" x="0" y="0" width="431" height="636"></rect>
                    </defs>
                    <g id="Page-1" stroke="none" stroke-width="1" fill="none" fill-rule="evenodd" opacity="0.8125">
                        <g id="iPhone-X---Outline-Copy">
                            <g id="Device">
                                <mask id="mask-2" fill="white">
                                    <use xlink:href="#path-1"></use>
                                </mask>
                                <g id="Rectangle"></g>
                                <path d="M370,0 C402.032515,0 428,25.9674845 428,58 L428,203 L431,203 L431,302 L428,302 L428,811 C428,843.032515 402.032515,869 370,869 L61,869 C28.9674845,869 3,843.032515 3,811 L3,321 L0,321 L0,261 L3,261 L3,243 L0,243 L0,183 L3,183 L3,154 L0,154 L0,120 L3,120 L3,58 C3,25.9674845 28.9674845,0 61,0 L370,0 Z M370.892989,4 L61,4 C31.4748573,4 7.48409715,27.6955087 7.00723446,57.1070113 L7,58 L7,811 C7,840.525143 30.6955087,864.515903 60.1070113,865 L370,865 C399.525143,865 423.515903,841.304491 423.992766,811.892989 L424,811 L424,58 C424,28.4748573 400.304491,4.48409715 370.892989,4 Z M365,7 C395.927946,7 421,32.072054 421,63 L421,805 C421,835.927946 395.927946,861 365,861 L66,861 C35.072054,861 10,835.927946 10,805 L10,63 C10,32.072054 35.072054,7 66,7 L365,7 Z M365.892989,9 L66,9 C36.4748573,9 12.4840971,32.6955087 12.0072345,62.1070113 L12,63 L12,805 C12,834.525143 35.6955087,858.515903 65.1070113,859 L365,859 C394.525143,859 418.515903,835.304491 418.992766,805.892989 L419,805 L419,63 C419,33.4748573 395.304491,9.48409715 365.892989,9 Z M106.553012,26.4800017 C122.764007,26.4800017 103.339638,55.0755464 137.730191,55 L165.952265,54.9709902 C211.918794,54.9516503 284.114136,55 297.10339,55 C328.668336,55 310.188542,26.4800017 326.032144,26.4800017 L329.021229,26.490732 C337.370365,26.5447695 351.933859,26.8029056 372.711711,27.2651402 C390.103193,27.6520396 403.999999,41.8614404 403.999999,59.2572247 L403.999999,808 C403.999999,825.673112 389.673111,840 371.999999,840 L60.9999995,840 C43.3268875,840 28.9999995,825.673112 28.9999995,808 L28.9999995,59.2493905 C28.9999995,41.8557567 42.893495,27.6472877 60.2827592,27.257431 L76.0081577,26.9207422 C90.5518576,26.6269152 100.733476,26.4800017 106.553012,26.4800017 Z M106.764041,28.4800017 L104.805325,28.4800017 C96.6295266,28.5178533 81.7996369,28.7755382 60.3275867,29.2569286 C44.1881761,29.6187643 31.2608316,42.6777454 31.0038973,58.7611004 L30.9999995,59.2493905 L30.9999995,808 C30.9999995,824.402857 44.164171,837.731057 60.5038946,838 L371.999999,838 C388.402857,838 401.731057,824.835828 401.99598,808.496105 L401.999999,808 L401.999999,59.2572247 C401.999999,42.9486769 388.971743,29.6273637 372.667229,29.2646455 L357.548229,28.9419998 C344.183767,28.6711682 334.446535,28.5194094 328.341488,28.4800017 L326.032144,28.4800017 C322.08829,28.4800017 321.055838,30.0227141 320.136728,36.372072 L319.704143,39.4588003 C319.612198,40.075872 319.537491,40.5165162 319.430535,41.1003772 C317.519539,51.5323475 311.712745,56.8830165 297.572575,56.9981029 L137.242506,56.9992919 C122.083698,56.9219906 115.63542,51.6841757 113.429616,41.4762299 L113.244714,40.569088 C113.1476,40.0678561 113.067102,39.6026639 112.962919,38.9360634 L112.53548,36.0898311 C111.598053,30.0626883 110.581666,28.5340996 106.764041,28.4800017 Z M2,262 L1,262 L1,320 L2,320 L2,262 Z M430,204 L429,204 L429,301 L430,301 L430,204 Z M2,184 L1,184 L1,242 L2,242 L2,184 Z M2,121 L1,121 L1,153 L2,153 L2,121 Z M261.5,30.5 C265.365993,30.5 268.5,33.6340068 268.5,37.5 C268.5,41.3659932 265.365993,44.5 261.5,44.5 C257.634007,44.5 254.5,41.3659932 254.5,37.5 C254.5,33.6340068 257.634007,30.5 261.5,30.5 Z M261.5,31.5 C258.186292,31.5 255.5,34.1862915 255.5,37.5 C255.5,40.8137085 258.186292,43.5 261.5,43.5 C264.813708,43.5 267.5,40.8137085 267.5,37.5 C267.5,34.1862915 264.813708,31.5 261.5,31.5 Z M236,34 C238.209139,34 240,35.790861 240,38 C240,40.209139 238.209139,42 236,42 L195,42 C192.790861,42 191,40.209139 191,38 C191,35.790861 192.790861,34 195,34 L236,34 Z M236,35 L195,35 C193.343146,35 192,36.3431458 192,38 C192,39.5976809 193.24892,40.9036609 194.823727,40.9949073 L195,41 L236,41 C237.656854,41 239,39.6568542 239,38 C239,36.4023191 237.75108,35.0963391 236.176273,35.0050927 L236,35 Z" id="Combined-Shape" fill="#000000" fill-rule="nonzero" mask="url(#mask-2)"></path>
                            </g>
                        </g>
                    </g>
                </svg>