<?xml version="1.0" standalone="no"?>
<!DOCTYPE svg PUBLIC "-//W3C//DTD SVG 20010904//EN"
 "http://www.w3.org/TR/2001/REC-SVG-20010904/DTD/svg10.dtd">
<svg version="1.0" xmlns="http://www.w3.org/2000/svg"
 width="243.000000pt" height="243.000000pt" viewBox="0 0 243.000000 243.000000"
 preserveAspectRatio="xMidYMid meet">
<metadata>
Created by potrace 1.11, written by Peter Selinger 2001-2013
</metadata>
<g transform="translate(0.000000,243.000000) scale(0.100000,-0.100000)"
fill="#000000" stroke="none">
<path d="M1060 2334 c-8 -1 -51 -8 -95 -15 -107 -16 -268 -69 -367 -121 -370
-192 -582 -558 -578 -997 1 -104 2 -119 14 -193 66 -412 342 -729 750 -862
135 -44 252 -61 426 -61 142 0 218 7 316 30 349 80 608 272 758 564 43 84 91
220 102 289 3 19 8 44 10 56 13 55 12 288 -1 371 -61 396 -300 701 -665 848
-171 69 -319 95 -525 95 -71 -1 -137 -2 -145 -4z m114 -40 c14 -6 16 -111 16
-1090 l0 -1084 -22 4 c-13 3 -59 8 -103 11 -434 35 -800 305 -938 690 -97 274
-81 609 43 870 157 332 504 561 895 591 44 4 82 8 84 10 6 5 7 5 25 -2z m201
-8 c110 -12 315 -63 338 -85 4 -5 -101 -7 -234 -7 l-243 1 -1 45 c-1 53 7 60
55 55 19 -2 58 -7 85 -9z m528 -185 c41 -27 77 -53 80 -58 4 -6 -139 -9 -370
-9 l-376 1 -2 58 -1 57 297 0 296 0 76 -49z m173 -143 c16 -18 40 -45 52 -59
l22 -26 -456 1 -457 1 -2 58 -1 57 406 0 406 0 30 -32z m122 -155 c11 -16 26
-42 35 -59 l16 -31 -506 1 -506 1 -2 58 -1 57 472 0 473 0 19 -27z m87 -170
c9 -21 17 -47 18 -58 2 -20 -4 -20 -532 -20 l-534 0 -2 58 -1 57 518 0 518 0
15 -37z m53 -175 c5 -29 8 -56 6 -59 -2 -3 -252 -6 -555 -5 l-552 1 -2 58 -1
57 547 0 546 0 11 -52z m21 -166 l2 -59 -562 1 -562 1 -2 58 -1 57 561 0 562
0 2 -58z m6 -116 c-2 -6 -6 -45 -9 -86 -13 -189 -100 -406 -223 -560 -172
-214 -451 -361 -748 -394 -49 -5 -120 -9 -140 -7 -7 1 -10 184 -10 529 l0 529
567 0 c402 0 565 -3 563 -11z"/>
</g>
</svg>
