<?xml version="1.0" encoding="UTF-8"?>
<svg width="300px" height="73px" viewBox="0 0 300 73" version="1.1" xmlns="http://www.w3.org/2000/svg" xmlns:xlink="http://www.w3.org/1999/xlink">
    <!-- Generator: Sketch 64 (93537) - https://sketch.com -->
    <title>logo_managed-sand</title>
    <desc>Created with Sketch.</desc>
    <g id="Page-1" stroke="none" stroke-width="1" fill="none" fill-rule="evenodd">
        <path d="M78.5722656,58.1474609 C84.4755859,58.1474609 89.8837891,54.8720703 92.0927734,49.9589844 L92.2070312,49.9589844 L92.2070312,57.5 L97.0058594,57.5 L97.0058594,30.3828125 C97.0058594,22.3085938 91.3310547,17.2431641 82.3046875,17.2431641 C73.2783203,17.2431641 67.4511719,22.2705078 66.8798828,29.3544922 L71.7548828,29.3544922 C72.6308594,24.5556641 76.3632812,21.6992188 82.1904297,21.6992188 C88.3603516,21.6992188 91.9785156,25.1269531 91.9785156,30.8398438 L91.9785156,34.2675781 L79.6386719,35.0292969 C70.4980469,35.6386719 65.4326172,39.7519531 65.4326172,46.53125 C65.4326172,53.4628906 70.7646484,58.1474609 78.5722656,58.1474609 Z M79.6005859,53.8056641 C74.2304688,53.8056641 70.5361328,50.8349609 70.5361328,46.53125 C70.5361328,42.1513672 74.0019531,39.4472656 80.2480469,39.0283203 L91.9785156,38.2285156 L91.9785156,42.6083984 C91.9785156,48.8925781 86.5322266,53.8056641 79.6005859,53.8056641 Z M106.235995,57.5 L106.235995,34.0390625 C106.235995,26.6884766 110.844394,21.7373047 117.699863,21.7373047 C124.326816,21.7373047 128.135409,25.6982422 128.135409,32.6298828 L128.135409,57.5 L133.162753,57.5 L133.162753,31.8300781 C133.162753,22.8417969 127.830722,17.2431641 119.147128,17.2431641 C112.748691,17.2431641 108.102206,20.4042969 106.083652,25.203125 L105.969394,25.203125 L105.969394,17.890625 L101.208652,17.890625 L101.208652,57.5 L106.235995,57.5 Z M149.1341,58.1474609 C155.03742,58.1474609 160.445624,54.8720703 162.654608,49.9589844 L162.768866,49.9589844 L162.768866,57.5 L167.567694,57.5 L167.567694,30.3828125 C167.567694,22.3085938 161.892889,17.2431641 152.866522,17.2431641 C143.840155,17.2431641 138.013006,22.2705078 137.441717,29.3544922 L142.316717,29.3544922 C143.192694,24.5556641 146.925116,21.6992188 152.752264,21.6992188 C158.922186,21.6992188 162.54035,25.1269531 162.54035,30.8398438 L162.54035,34.2675781 L150.200506,35.0292969 C141.059881,35.6386719 135.994452,39.7519531 135.994452,46.53125 C135.994452,53.4628906 141.326483,58.1474609 149.1341,58.1474609 Z M150.16242,53.8056641 C144.792303,53.8056641 141.097967,50.8349609 141.097967,46.53125 C141.097967,42.1513672 144.563788,39.4472656 150.809881,39.0283203 L162.54035,38.2285156 L162.54035,42.6083984 C162.54035,48.8925781 157.094061,53.8056641 150.16242,53.8056641 Z M187.918924,72.1630859 C198.506814,72.1630859 205.248025,66.0693359 205.248025,56.8525391 L205.248025,17.890625 L200.449197,17.890625 L200.449197,26.2695312 L200.334939,26.2695312 C198.011697,20.8613281 192.946267,17.2431641 186.624002,17.2431641 C176.493142,17.2431641 169.790017,25.2792969 169.790017,37.5810547 C169.790017,49.8447266 176.493142,57.8808594 186.509744,57.8808594 C192.83201,57.8808594 197.935525,54.1865234 200.068338,49.0830078 L200.182595,49.0830078 L200.182595,57.0429688 C200.182595,63.5175781 195.574197,67.8212891 188.147439,67.8212891 C182.396463,67.8212891 178.168924,65.0410156 176.874002,61.15625 L171.656228,61.15625 C172.76072,67.4023438 179.273416,72.1630859 187.918924,72.1630859 Z M187.423806,53.4248047 C179.958963,53.4248047 174.969705,47.1787109 174.969705,37.6191406 C174.969705,27.9833984 179.958963,21.6992188 187.423806,21.6992188 C195.040994,21.6992188 200.182595,28.0976562 200.182595,37.5810547 C200.182595,47.0644531 195.040994,53.4248047 187.423806,53.4248047 Z M225.713513,58.1474609 C234.435192,58.1474609 240.871716,53.1201172 242.05238,46.2646484 L237.063122,46.2646484 C235.95863,50.6064453 231.807263,53.7294922 225.827771,53.7294922 C217.943981,53.7294922 212.878552,48.1689453 212.878552,39.21875 L212.878552,38.9140625 L242.547497,38.9140625 L242.547497,36.78125 C242.547497,24.9746094 235.920544,17.2431641 225.408825,17.2431641 C214.668591,17.2431641 207.698864,25.5078125 207.698864,37.8095703 C207.698864,50.3779297 214.592419,58.1474609 225.713513,58.1474609 Z M237.36781,34.9150391 L212.916638,34.9150391 C213.335583,27.1074219 218.248669,21.6611328 225.332653,21.6611328 C232.49281,21.6611328 237.253552,27.1074219 237.36781,34.9150391 Z M260.004196,58.1474609 C266.402633,58.1474609 271.468063,54.453125 273.715133,49.1210938 L273.829391,49.1210938 L273.829391,57.5 L278.628219,57.5 L278.628219,2.54199219 L273.562789,2.54199219 L273.562789,26.0410156 L273.448532,26.0410156 C271.353805,20.8994141 266.288375,17.2431641 259.889938,17.2431641 C249.949508,17.2431641 243.055953,25.3554688 243.055953,37.6953125 C243.055953,49.9970703 249.987594,58.1474609 260.004196,58.1474609 Z M260.880172,53.6914062 C253.262985,53.6914062 248.235641,47.3691406 248.235641,37.6953125 C248.235641,28.0214844 253.262985,21.6992188 260.880172,21.6992188 C268.421188,21.6992188 273.600875,28.1357422 273.600875,37.6953125 C273.600875,47.2929688 268.421188,53.6914062 260.880172,53.6914062 Z M287.820269,50.7207031 C289.800738,50.7207031 291.362261,52.2822266 291.362261,54.3007812 C291.362261,56.28125 289.800738,57.8427734 287.820269,57.8427734 C285.8398,57.8427734 284.240191,56.28125 284.240191,54.3007812 C284.240191,52.2822266 285.8398,50.7207031 287.820269,50.7207031 Z M11.1216006,0 L25.822,52.658 L35.256,52.658 L50.2214705,0 L61.407888,0 L61.407888,57.0497517 L56.407888,57.0497517 L56.407,5 L53.998,5 L39.0337757,57.6585449 L22.0273571,57.6585449 L7.326,5 L5,5 L5,57.0497517 L0,57.0497517 L0,0 L11.1216006,0 Z M290.995117,2.81738281 L290.995117,4.34667969 L289.158203,4.34667969 L289.158203,9.29492188 L287.3125,9.29492188 L287.3125,4.34667969 L285.466797,4.34667969 L285.466797,2.81738281 L290.995117,2.81738281 Z M293.904297,2.81738281 L295.459961,6.63183594 L295.495117,6.63183594 L297.05957,2.81738281 L299.195312,2.81738281 L299.195312,9.29492188 L297.578125,9.29492188 L297.578125,5.56835938 L297.53418,5.56835938 L295.987305,9.29492188 L294.967773,9.29492188 L293.420898,5.56835938 L293.385742,5.56835938 L293.385742,9.29492188 L291.759766,9.29492188 L291.759766,2.81738281 L293.904297,2.81738281 Z" id="logo_managed-sand" fill="#84754E" fill-rule="nonzero"></path>
    </g>
</svg>