<?xml version="1.0" encoding="UTF-8"?>
<svg width="300px" height="73px" viewBox="0 0 300 73" version="1.1" xmlns="http://www.w3.org/2000/svg" xmlns:xlink="http://www.w3.org/1999/xlink">
    <!-- Generator: Sketch 64 (93537) - https://sketch.com -->
    <title>logo_managed-black</title>
    <desc>Created with Sketch.</desc>
    <g id="Page-1" stroke="none" stroke-width="1" fill="none" fill-rule="evenodd">
        <path d="M79.0722656,58.6474609 C84.9755859,58.6474609 90.3837891,55.3720703 92.5927734,50.4589844 L92.7070312,50.4589844 L92.7070312,58 L97.5058594,58 L97.5058594,30.8828125 C97.5058594,22.8085938 91.8310547,17.7431641 82.8046875,17.7431641 C73.7783203,17.7431641 67.9511719,22.7705078 67.3798828,29.8544922 L72.2548828,29.8544922 C73.1308594,25.0556641 76.8632812,22.1992188 82.6904297,22.1992188 C88.8603516,22.1992188 92.4785156,25.6269531 92.4785156,31.3398438 L92.4785156,34.7675781 L80.1386719,35.5292969 C70.9980469,36.1386719 65.9326172,40.2519531 65.9326172,47.03125 C65.9326172,53.9628906 71.2646484,58.6474609 79.0722656,58.6474609 Z M80.1005859,54.3056641 C74.7304688,54.3056641 71.0361328,51.3349609 71.0361328,47.03125 C71.0361328,42.6513672 74.5019531,39.9472656 80.7480469,39.5283203 L92.4785156,38.7285156 L92.4785156,43.1083984 C92.4785156,49.3925781 87.0322266,54.3056641 80.1005859,54.3056641 Z M106.735995,58 L106.735995,34.5390625 C106.735995,27.1884766 111.344394,22.2373047 118.199863,22.2373047 C124.826816,22.2373047 128.635409,26.1982422 128.635409,33.1298828 L128.635409,58 L133.662753,58 L133.662753,32.3300781 C133.662753,23.3417969 128.330722,17.7431641 119.647128,17.7431641 C113.248691,17.7431641 108.602206,20.9042969 106.583652,25.703125 L106.469394,25.703125 L106.469394,18.390625 L101.708652,18.390625 L101.708652,58 L106.735995,58 Z M149.6341,58.6474609 C155.53742,58.6474609 160.945624,55.3720703 163.154608,50.4589844 L163.268866,50.4589844 L163.268866,58 L168.067694,58 L168.067694,30.8828125 C168.067694,22.8085938 162.392889,17.7431641 153.366522,17.7431641 C144.340155,17.7431641 138.513006,22.7705078 137.941717,29.8544922 L142.816717,29.8544922 C143.692694,25.0556641 147.425116,22.1992188 153.252264,22.1992188 C159.422186,22.1992188 163.04035,25.6269531 163.04035,31.3398438 L163.04035,34.7675781 L150.700506,35.5292969 C141.559881,36.1386719 136.494452,40.2519531 136.494452,47.03125 C136.494452,53.9628906 141.826483,58.6474609 149.6341,58.6474609 Z M150.66242,54.3056641 C145.292303,54.3056641 141.597967,51.3349609 141.597967,47.03125 C141.597967,42.6513672 145.063788,39.9472656 151.309881,39.5283203 L163.04035,38.7285156 L163.04035,43.1083984 C163.04035,49.3925781 157.594061,54.3056641 150.66242,54.3056641 Z M188.418924,72.6630859 C199.006814,72.6630859 205.748025,66.5693359 205.748025,57.3525391 L205.748025,18.390625 L200.949197,18.390625 L200.949197,26.7695312 L200.834939,26.7695312 C198.511697,21.3613281 193.446267,17.7431641 187.124002,17.7431641 C176.993142,17.7431641 170.290017,25.7792969 170.290017,38.0810547 C170.290017,50.3447266 176.993142,58.3808594 187.009744,58.3808594 C193.33201,58.3808594 198.435525,54.6865234 200.568338,49.5830078 L200.682595,49.5830078 L200.682595,57.5429688 C200.682595,64.0175781 196.074197,68.3212891 188.647439,68.3212891 C182.896463,68.3212891 178.668924,65.5410156 177.374002,61.65625 L172.156228,61.65625 C173.26072,67.9023438 179.773416,72.6630859 188.418924,72.6630859 Z M187.923806,53.9248047 C180.458963,53.9248047 175.469705,47.6787109 175.469705,38.1191406 C175.469705,28.4833984 180.458963,22.1992188 187.923806,22.1992188 C195.540994,22.1992188 200.682595,28.5976562 200.682595,38.0810547 C200.682595,47.5644531 195.540994,53.9248047 187.923806,53.9248047 Z M226.213513,58.6474609 C234.935192,58.6474609 241.371716,53.6201172 242.55238,46.7646484 L237.563122,46.7646484 C236.45863,51.1064453 232.307263,54.2294922 226.327771,54.2294922 C218.443981,54.2294922 213.378552,48.6689453 213.378552,39.71875 L213.378552,39.4140625 L243.047497,39.4140625 L243.047497,37.28125 C243.047497,25.4746094 236.420544,17.7431641 225.908825,17.7431641 C215.168591,17.7431641 208.198864,26.0078125 208.198864,38.3095703 C208.198864,50.8779297 215.092419,58.6474609 226.213513,58.6474609 Z M237.86781,35.4150391 L213.416638,35.4150391 C213.835583,27.6074219 218.748669,22.1611328 225.832653,22.1611328 C232.99281,22.1611328 237.753552,27.6074219 237.86781,35.4150391 Z M260.504196,58.6474609 C266.902633,58.6474609 271.968063,54.953125 274.215133,49.6210938 L274.329391,49.6210938 L274.329391,58 L279.128219,58 L279.128219,3.04199219 L274.062789,3.04199219 L274.062789,26.5410156 L273.948532,26.5410156 C271.853805,21.3994141 266.788375,17.7431641 260.389938,17.7431641 C250.449508,17.7431641 243.555953,25.8554688 243.555953,38.1953125 C243.555953,50.4970703 250.487594,58.6474609 260.504196,58.6474609 Z M261.380172,54.1914062 C253.762985,54.1914062 248.735641,47.8691406 248.735641,38.1953125 C248.735641,28.5214844 253.762985,22.1992188 261.380172,22.1992188 C268.921188,22.1992188 274.100875,28.6357422 274.100875,38.1953125 C274.100875,47.7929688 268.921188,54.1914062 261.380172,54.1914062 Z M288.320269,51.2207031 C290.300738,51.2207031 291.862261,52.7822266 291.862261,54.8007812 C291.862261,56.78125 290.300738,58.3427734 288.320269,58.3427734 C286.3398,58.3427734 284.740191,56.78125 284.740191,54.8007812 C284.740191,52.7822266 286.3398,51.2207031 288.320269,51.2207031 Z M11.6216006,0.5 L26.322,53.158 L35.756,53.158 L50.7214705,0.5 L61.907888,0.5 L61.907888,57.5497517 L56.907888,57.5497517 L56.907,5.5 L54.498,5.5 L39.5337757,58.1585449 L22.5273571,58.1585449 L7.826,5.5 L5.5,5.5 L5.5,57.5497517 L0.5,57.5497517 L0.5,0.5 L11.6216006,0.5 Z M291.495117,3.31738281 L291.495117,4.84667969 L289.658203,4.84667969 L289.658203,9.79492188 L287.8125,9.79492188 L287.8125,4.84667969 L285.966797,4.84667969 L285.966797,3.31738281 L291.495117,3.31738281 Z M294.404297,3.31738281 L295.959961,7.13183594 L295.995117,7.13183594 L297.55957,3.31738281 L299.695312,3.31738281 L299.695312,9.79492188 L298.078125,9.79492188 L298.078125,6.06835938 L298.03418,6.06835938 L296.487305,9.79492188 L295.467773,9.79492188 L293.920898,6.06835938 L293.885742,6.06835938 L293.885742,9.79492188 L292.259766,9.79492188 L292.259766,3.31738281 L294.404297,3.31738281 Z" id="logo_managed-black" fill="#000000" fill-rule="nonzero"></path>
    </g>
</svg>