<?xml version="1.0" encoding="UTF-8"?>
<svg width="187px" height="32px" viewBox="0 0 187 32" version="1.1" xmlns="http://www.w3.org/2000/svg" xmlns:xlink="http://www.w3.org/1999/xlink">
    <!-- Generator: Sketch 64 (93537) - https://sketch.com -->
    <title>logo_bymandhari-sand</title>
    <desc>Created with Sketch.</desc>
    <g id="Page-1" stroke="none" stroke-width="1" fill="none" fill-rule="evenodd">
        <path d="M60.1230469,31.1074219 C62.7402344,31.1074219 65.3378906,29.7988281 66.5097656,27.5722656 L66.6269531,27.5722656 L66.6269531,30.7753906 L72.1347656,30.7753906 L72.1347656,16.3808594 C72.1347656,12.1621094 68.6386719,9.38867188 63.2675781,9.38867188 C57.7207031,9.38867188 54.2636719,12.1816406 54.0488281,16.2441406 L59.2636719,16.2441406 C59.5371094,14.7011719 60.8847656,13.6464844 63.0136719,13.6464844 C65.1621094,13.6464844 66.5292969,14.7792969 66.5292969,16.7324219 L66.5292969,18.1191406 L61.2558594,18.4316406 C56.0410156,18.7441406 53.1113281,20.9511719 53.1113281,24.7597656 C53.1113281,28.5292969 56.1386719,31.1074219 60.1230469,31.1074219 Z M61.9980469,26.9863281 C60.0644531,26.9863281 58.7753906,26.0097656 58.7753906,24.4472656 C58.7753906,22.9628906 59.9863281,22.0058594 62.1152344,21.8496094 L66.5292969,21.5761719 L66.5292969,23.0996094 C66.5292969,25.3652344 64.4785156,26.9863281 61.9980469,26.9863281 Z M79.3291062,30.7753906 L79.3291062,18.7636719 C79.3291062,16.0488281 80.9501999,14.1738281 83.5087937,14.1738281 C86.0673874,14.1738281 87.3564499,15.7363281 87.3564499,18.4707031 L87.3564499,30.7753906 L93.0595749,30.7753906 L93.0595749,17.2792969 C93.0595749,12.3769531 90.4423874,9.44726562 85.7939499,9.44726562 C82.5712937,9.44726562 80.3642624,10.9707031 79.2509812,13.5683594 L79.1337937,13.5683594 L79.1337937,9.83789062 L73.6259812,9.83789062 L73.6259812,30.7753906 L79.3291062,30.7753906 Z M102.265634,31.1074219 C105.351572,31.1074219 107.773447,29.4863281 108.789072,27.1816406 L108.886728,27.1816406 L108.886728,30.7753906 L114.511728,30.7753906 L114.511728,2.59179688 L108.808603,2.59179688 L108.808603,13.4316406 L108.691416,13.4316406 C107.675791,11.1074219 105.332041,9.50585938 102.304697,9.50585938 C97.0507905,9.50585938 93.730478,13.6269531 93.730478,20.2675781 C93.730478,26.9667969 97.0312593,31.1074219 102.265634,31.1074219 Z M104.199228,26.5175781 C101.328134,26.5175781 99.5703218,24.1542969 99.5703218,20.3066406 C99.5703218,16.4785156 101.328134,14.0761719 104.199228,14.0761719 C107.031259,14.0761719 108.847666,16.4980469 108.847666,20.3066406 C108.847666,24.1347656 107.031259,26.5175781 104.199228,26.5175781 Z M121.979506,30.7753906 L121.979506,18.8222656 C121.979506,16.0683594 123.561537,14.1738281 126.25685,14.1738281 C128.854506,14.1738281 130.182631,15.8144531 130.182631,18.5097656 L130.182631,30.7753906 L135.885756,30.7753906 L135.885756,17.2988281 C135.885756,12.4550781 133.229506,9.44726562 128.581069,9.44726562 C125.397475,9.44726562 123.112319,10.9316406 121.999037,13.5683594 L121.88185,13.5683594 L121.88185,2.59179688 L116.276381,2.59179688 L116.276381,30.7753906 L121.979506,30.7753906 Z M143.548847,31.1074219 C146.166034,31.1074219 148.76369,29.7988281 149.935565,27.5722656 L150.052753,27.5722656 L150.052753,30.7753906 L155.560565,30.7753906 L155.560565,16.3808594 C155.560565,12.1621094 152.064472,9.38867188 146.693378,9.38867188 C141.146503,9.38867188 137.689472,12.1816406 137.474628,16.2441406 L142.689472,16.2441406 C142.962909,14.7011719 144.310565,13.6464844 146.439472,13.6464844 C148.587909,13.6464844 149.955097,14.7792969 149.955097,16.7324219 L149.955097,18.1191406 L144.681659,18.4316406 C139.466815,18.7441406 136.537128,20.9511719 136.537128,24.7597656 C136.537128,28.5292969 139.564472,31.1074219 143.548847,31.1074219 Z M145.423847,26.9863281 C143.490253,26.9863281 142.20119,26.0097656 142.20119,24.4472656 C142.20119,22.9628906 143.412128,22.0058594 145.541034,21.8496094 L149.955097,21.5761719 L149.955097,23.0996094 C149.955097,25.3652344 147.904315,26.9863281 145.423847,26.9863281 Z M162.754906,30.7753906 L162.754906,19.0761719 C162.754906,16.1269531 164.395531,14.4082031 167.208031,14.4082031 C168.028343,14.4082031 168.809593,14.5449219 169.278343,14.7402344 L169.278343,9.72070312 C168.887718,9.60351562 168.321312,9.50585938 167.65725,9.50585938 C165.196312,9.50585938 163.418968,10.9511719 162.676781,13.6074219 L162.559593,13.6074219 L162.559593,9.83789062 L157.051781,9.83789062 L157.051781,30.7753906 L162.754906,30.7753906 Z M172.35159,7.00585938 C174.011747,7.00585938 175.32034,5.67773438 175.32034,4.07617188 C175.32034,2.45507812 174.011747,1.14648438 172.35159,1.14648438 C170.691434,1.14648438 169.38284,2.45507812 169.38284,4.07617188 C169.38284,5.67773438 170.691434,7.00585938 172.35159,7.00585938 Z M27.1563343,2.27539062 L33.9746406,25.9323906 L37.3356406,25.9323906 L43.9021422,2.27539062 L51.5566406,2.27539062 L51.5566406,30.7753906 L46.5566406,30.7753906 L46.5566406,11.4063906 L41.137448,30.9329945 L30.2122511,30.9329945 L24.5566406,11.3103906 L24.5566406,30.7753906 L19.5566406,30.7753906 L19.5566406,2.27539062 L27.1563343,2.27539062 Z M175.222684,9.83789062 L175.222684,30.7753906 L169.519559,30.7753906 L169.519559,9.83789062 L175.222684,9.83789062 Z M2.96484375,21.3203125 C4.56445312,21.3203125 5.52539062,22.1054688 5.52539062,23.4179688 C5.52539062,24.3378906 4.8984375,25.1054688 4.03125,25.2460938 L4.03125,25.2460938 L4.03125,25.3398438 C5.15625,25.4335938 5.93554688,26.2773438 5.93554688,27.3847656 C5.93554688,28.8671875 4.83984375,29.7753906 3.0234375,29.7753906 L3.0234375,29.7753906 L0,29.7753906 L0,21.3203125 Z M7.6133803,21.3203125 L9.48252092,25.0351562 L9.57627092,25.0351562 L11.4454115,21.3203125 L12.9922865,21.3203125 L10.2383803,26.5 L10.2383803,29.7753906 L8.82041155,29.7753906 L8.82041155,26.5 L6.0665053,21.3203125 L7.6133803,21.3203125 Z M2.6015625,25.9375 L1.39453125,25.9375 L1.39453125,28.6386719 L2.625,28.6386719 C3.85546875,28.6386719 4.46484375,28.1933594 4.46484375,27.2734375 C4.46484375,26.3886719 3.83789062,25.9375 2.6015625,25.9375 L2.6015625,25.9375 Z M2.6015625,22.4394531 L1.39453125,22.4394531 L1.39453125,24.8710938 L2.49609375,24.8710938 C3.52734375,24.8710938 4.1015625,24.4375 4.1015625,23.6699219 C4.1015625,22.8789062 3.5625,22.4394531 2.6015625,22.4394531 L2.6015625,22.4394531 Z M183.074707,0 C185.010742,0 186.515137,1.52978516 186.515137,3.48486328 C186.515137,5.43994141 185.010742,6.96972656 183.074707,6.96972656 C181.138672,6.96972656 179.634277,5.43994141 179.634277,3.48486328 C179.634277,1.52978516 181.138672,0 183.074707,0 Z M183.074707,0.622070312 C181.525879,0.622070312 180.307129,1.87890625 180.307129,3.48486328 C180.307129,5.09082031 181.525879,6.34765625 183.074707,6.34765625 C184.623535,6.34765625 185.842285,5.09082031 185.842285,3.48486328 C185.842285,1.87890625 184.623535,0.622070312 183.074707,0.622070312 Z M183.354004,1.73925781 C184.077637,1.73925781 184.515625,2.13916016 184.515625,2.79931641 C184.515625,3.29443359 184.22998,3.68164062 183.753906,3.83398438 L183.753906,3.83398438 L184.687012,5.19238281 L183.90625,5.19238281 L183.030273,3.90380859 L182.36377,3.90380859 L182.36377,5.19238281 L181.729004,5.19238281 L181.729004,1.73925781 Z M183.220703,2.32958984 L182.36377,2.32958984 L182.36377,3.36425781 L183.220703,3.36425781 C183.601562,3.36425781 183.82373,3.16748047 183.82373,2.82470703 C183.82373,2.50732422 183.601562,2.32958984 183.220703,2.32958984 L183.220703,2.32958984 Z" id="logo_bymandhari-sand" fill="#84754E" fill-rule="nonzero"></path>
    </g>
</svg>